<svg id="Layer_1" data-name="Layer 1" xmlns="http://www.w3.org/2000/svg" viewBox="0 0 1000 870"><defs><style>.cls-1,.cls-10,.cls-2,.cls-3,.cls-4,.cls-5,.cls-6,.cls-7,.cls-8,.cls-9{fill:none;stroke:#663;stroke-miterlimit:10;}.cls-1{stroke-width:11.15px;}.cls-2{stroke-width:3.72px;}.cls-3{stroke-width:16.05px;}.cls-4{stroke-width:5.35px;}.cls-5{stroke-width:8.32px;}.cls-6{stroke-width:2.77px;}.cls-7{stroke-width:24.45px;}.cls-8{stroke-width:8.15px;}.cls-9{stroke-width:31.99px;}.cls-10{stroke-width:10.66px;}</style></defs><line class="cls-1" x1="437.22" y1="870.12" x2="437.12" y2="807.7"/><polygon class="cls-2" points="505.81 807.74 480.44 763.8 489.91 763.8 468.64 726.96 476.26 726.96 435.77 656.84 395.29 726.96 402.91 726.96 381.64 763.8 391.11 763.8 365.74 807.74 505.81 807.74"/><line class="cls-3" x1="763.01" y1="867.99" x2="762.85" y2="778.1"/><polygon class="cls-4" points="861.76 778.15 825.24 714.89 838.87 714.89 808.24 661.83 819.21 661.83 760.92 560.86 702.63 661.83 713.6 661.83 682.96 714.89 696.6 714.89 660.08 778.15 861.76 778.15"/><line class="cls-5" x1="617.47" y1="867.99" x2="617.39" y2="821.38"/><polygon class="cls-6" points="668.68 821.4 649.75 788.6 656.82 788.6 640.93 761.08 646.62 761.08 616.39 708.72 586.16 761.08 591.85 761.08 575.97 788.6 583.04 788.6 564.1 821.4 668.68 821.4"/><line class="cls-7" x1="285.78" y1="870.12" x2="285.55" y2="733.2"/><polygon class="cls-8" points="436.21 733.28 380.57 636.92 401.34 636.92 354.68 556.1 371.4 556.1 282.6 402.31 193.81 556.1 210.53 556.1 163.87 636.92 184.63 636.92 129 733.28 436.21 733.28"/><line class="cls-9" x1="545.3" y1="870.12" x2="544.99" y2="690.96"/><polygon class="cls-10" points="742.13 691.07 669.33 564.98 696.5 564.98 635.45 459.24 657.32 459.24 541.14 258 424.95 459.24 446.82 459.24 385.77 564.98 412.95 564.98 340.15 691.07 742.13 691.07"/></svg>