<svg id="Layer_1" data-name="Layer 1" xmlns="http://www.w3.org/2000/svg" viewBox="0 0 1000 870"><defs><style>.cls-1{fill:#efd497;}</style></defs><path class="cls-1" d="M462.74,143.83a1502.36,1502.36,0,0,1-352.55-42l2.73-11.28a1490.2,1490.2,0,0,0,363,41.62A1490,1490,0,0,0,873.7,74.35l3.2,11.16a1501.57,1501.57,0,0,1-400.83,58.26Q469.41,143.83,462.74,143.83Z"/><path class="cls-1" d="M893.17,365.23c-86.72,0-168.75-12.83-244.89-38.37-60.83-20.4-105-44.44-144.08-65.65-50.83-27.63-94.74-51.49-161.39-61.8C248,184.76,147.7,204.1,44.55,256.88l-5.28-10.33c105.36-53.92,208.08-73.63,305.31-58.61C413.23,198.56,458,222.86,509.75,251c38.6,21,82.36,44.77,142.22,64.84,103.57,34.75,218.33,45.59,341.09,32.24l1.26,11.54A937.18,937.18,0,0,1,893.17,365.23Z"/><path class="cls-1" d="M467.39,540.87c-64.18,0-118-33-222.06-96.69-13.36-8.19-27.58-16.9-42.79-26.13-27.91-16.94-61.87-9.85-94.72-3C67.93,423.39,26.67,432,0,394.38l9.54-6.76c22.24,31.37,56.37,24.24,95.89,16,35.07-7.32,71.33-14.89,103.17,4.45,15.23,9.24,29.46,18,42.84,26.15,108.65,66.54,158.25,97,221.69,94.87,64.49-2.07,117.5-19.51,134.92-25.24,48.86-16.08,79.57-34.2,109.27-51.73,9-5.3,17.47-10.31,26.3-15.16,71.32-39.18,156.11-62.07,252-68l.72,11.66c-94.18,5.86-177.33,28.27-247.12,66.61-8.67,4.77-17.08,9.73-26,15-28.82,17-61.5,36.29-111.56,52.76-17.81,5.87-72,23.7-138.2,25.83C471.45,540.83,469.42,540.87,467.39,540.87Z"/><path class="cls-1" d="M579.43,680.6c-4.24,0-8.52-.16-12.88-.47-30.16-2.19-45.38-10.88-73-26.66-17.65-10.08-41.82-23.88-79.3-41.2-64.67-29.87-125.44-51.61-180.62-64.61-72.26-17-149.06-21.66-228.28-13.8l-1.17-11.8c80.52-8,158.64-3.26,232.16,14.06,56,13.18,117.49,35.18,182.88,65.39C457.17,619,481.59,633,499.43,643.17c27,15.4,40.5,23.13,68,25.13,56.21,4.06,102-21.27,171.17-59.63,31.29-17.34,51.84-32,71.71-46.26,25.63-18.33,49.84-35.64,93.44-56.07a652.08,652.08,0,0,1,92.94-35.14l3.33,11.38a640.93,640.93,0,0,0-91.24,34.5c-42.61,20-66.39,37-91.57,55-20.14,14.41-41,29.31-72.86,47C678.44,655.56,633.28,680.59,579.43,680.6Z"/><path class="cls-1" d="M674.25,795.65c-64.81,0-124.82-10.83-179.48-32.47-32.15-12.73-57.2-26.95-83.71-42-34.74-19.73-70.66-40.13-127.33-60A753.75,753.75,0,0,0,69.49,619.65L70,608.06a765.31,765.31,0,0,1,217.54,42.11c57.65,20.27,94,40.93,129.21,60.9C442.94,725.93,467.65,740,499,752.39c93.42,37,203.17,41.58,326.22,13.66l2.57,11.32Q747.25,795.66,674.25,795.65Z"/><path class="cls-1" d="M530.63,272.14l-4.77-10.67c39.34-17.55,136.6-58.6,190.17-60.86,80-3.37,144.24,21.23,184.07,42.46l-5.5,10.32c-38.55-20.55-100.75-44.38-178.07-41.1C665,214.46,569.35,254.87,530.63,272.14Z"/><path class="cls-1" d="M699.6,471.6c-6.57-3.5-15.69-9.64-27.23-17.42-43-29-115.1-77.53-181-74.75-54,2.28-212.37,51.45-241.61,64.5L245,433.25c29.69-13.24,190.78-63.18,245.89-65.5,69.75-2.89,143.8,46.93,188,76.73,11.26,7.59,20.16,13.59,26.2,16.81Z"/></svg>