<svg id="Layer_1" data-name="Layer 1" xmlns="http://www.w3.org/2000/svg" viewBox="0 0 1000 870"><defs><style>.cls-1{fill:none;stroke:#9cf;stroke-miterlimit:10;stroke-width:9.4px;}</style></defs><path class="cls-1" d="M32,504.18c92.36,0,92.36,52.63,184.71,52.63S309,504.18,401.37,504.18s92.35,52.63,184.7,52.63,92.36-52.63,184.72-52.63,92.35,52.63,184.71,52.63"/><path class="cls-1" d="M57.5,606c67,0,67,52,134.07,52s67-52,134.07-52,67,52,134.07,52,67-52,134.07-52,67,52,134.07,52,67-52,134.07-52S929,658,996,658"/><path class="cls-1" d="M0,707.19c87.22,0,87.22,52.63,174.43,52.63s87.22-52.63,174.44-52.63,87.21,52.63,174.43,52.63,87.22-52.63,174.44-52.63S785,759.82,872.18,759.82"/><path class="cls-1" d="M95.86,803.05c87.22,0,87.22,52.63,174.44,52.63s87.21-52.63,174.43-52.63S532,855.68,619.16,855.68s87.22-52.63,174.44-52.63,87.22,52.63,174.45,52.63"/><path class="cls-1" d="M-.5,404.63c82,0,82,60,163.93,60s82-60,163.92-60,82,60,163.93,60,82-60,163.93-60,82,60,163.94,60,82-60,163.93-60"/></svg>